<svg width="74" height="70" viewBox="0 0 74 70" xmlns="http://www.w3.org/2000/svg">
	<path
		d="M38.9001 15.3C38.9001 16.4046 38.0494 17.3 37.0001 17.3C35.9508 17.3 35.1001 16.4046 35.1001 15.3C35.1001 14.1955 35.9508 13.3 37.0001 13.3C38.0494 13.3 38.9001 14.1955 38.9001 15.3Z" />
	<path
		d="M29.2001 12.2C30.2494 12.2 31.1 11.3045 31.1 10.2C31.1 9.09538 30.2494 8.19995 29.2001 8.19995C28.1507 8.19995 27.3 9.09538 27.3 10.2C27.3 11.3045 28.1507 12.2 29.2001 12.2Z" />
	<path
		d="M46.6 10.2C46.6 11.3045 45.7494 12.2 44.7001 12.2C43.6507 12.2 42.8 11.3045 42.8 10.2C42.8 9.09538 43.6507 8.19995 44.7001 8.19995C45.7494 8.19995 46.6 9.09538 46.6 10.2Z" />
	<path fill-rule="evenodd" clip-rule="evenodd"
		d="M68.8 31.5C68.8 31.2116 68.8231 30.9231 68.8471 30.6236C68.873 30.3 68.9 29.9635 68.9 29.6V28.4C68.2 12.7 54.2 0 37 0C19.7 0 5.7 12.7 5 28.5V29.7C5 30.3 5 30.9 5.1 31.5H68.8ZM37 3C52.6 3 65.4 14.3 66 28.5H8C8.6 14.4 21.4 3 37 3Z" />
	<path
		d="M21.0001 42.5001L15.6001 38.4001L10.3001 42.5001L4.1001 37.8001L5.8001 35.3001L10.3001 38.7001L15.6001 34.6001L21.0001 38.7001L26.3001 34.6001L31.6001 38.7001L36.9001 34.6001L42.3001 38.7001L47.6001 34.6001L52.9001 38.7001L58.3001 34.6001L63.6001 38.7001L68.1001 35.3001L69.8001 37.8001L63.6001 42.5001L58.3001 38.4001L52.9001 42.5001L47.6001 38.4001L42.3001 42.5001L36.9001 38.4001L31.6001 42.5001L26.3001 38.4001L21.0001 42.5001Z" />
	<path fill-rule="evenodd" clip-rule="evenodd"
		d="M69.9 46.7C72.1 46.7 74 48.7 73.8 51V54.5C73.8 56.9 72 58.7999 69.7 58.7999H68.8V59.9C68.8 65.5 64.5 70 59.2 70H14.6C9.3 70 5 65.3999 5 59.9V58.7999H4.1C1.9 58.7999 0 56.9 0 54.5V51C0 48.5999 1.8 46.7 4.1 46.7H69.9ZM59.3 66.8999C63 66.8999 66 63.8 66 59.9V58.7999H7.9V59.9C7.9 63.7 10.9 66.8999 14.6 66.8999H59.3ZM69.9 55.7999C70.5 55.7999 71.1 55.2 71.1 54.5C71.1 54.5 71.1 51 71 51C71 50.2999 70.5 49.7 69.8 49.7H4C3.4 49.7 2.8 50.2999 2.8 51V54.5C2.8 55.2 3.3 55.7999 4 55.7999H69.9Z" />
</svg>
