<svg width="21" height="20" viewBox="0 0 21 20" fill="none" xmlns="http://www.w3.org/2000/svg">
<path d="M7.86438 12C8.16438 12 8.36438 11.8 8.36438 11.5C8.36438 11.2 8.16438 11 7.86438 11C7.56438 11 7.36438 11.2 7.36438 11.5C7.36438 11.8 7.56438 12 7.86438 12Z" fill="black"/>
<path d="M17.1144 4H15.1144V2H14.1144V4H6.11438V2H5.11438V4H3.11438C2.51438 4 2.11438 4.4 2.11438 5V16C2.11438 16.5 2.51438 17 3.11438 17H17.1144C17.6144 17 18.1144 16.5 18.1144 16V5C18.1144 4.4 17.6144 4 17.1144 4ZM17.1144 16H3.11438V9H17.1144V16ZM3.11438 8V5H5.11438V7H6.11438V5H14.1144V7H15.1144V5H17.1144V8H3.11438Z" fill="black"/>
<path d="M10.1144 12C10.4144 12 10.6144 11.8 10.6144 11.5C10.6144 11.2 10.4144 11 10.1144 11C9.81438 11 9.61438 11.2 9.61438 11.5C9.61438 11.8 9.81438 12 10.1144 12Z" fill="black"/>
<path d="M12.3644 12C12.6644 12 12.8644 11.8 12.8644 11.5C12.8644 11.2 12.6644 11 12.3644 11C12.0644 11 11.8644 11.2 11.8644 11.5C11.8644 11.8 12.0644 12 12.3644 12Z" fill="black"/>
<path d="M7.86438 13C7.56438 13 7.36438 13.2 7.36438 13.5C7.36438 13.8 7.56438 14 7.86438 14C8.16438 14 8.36438 13.8 8.36438 13.5C8.36438 13.2 8.16438 13 7.86438 13Z" fill="black"/>
<path d="M5.61438 12C5.91438 12 6.11438 11.8 6.11438 11.5C6.11438 11.2 5.91438 11 5.61438 11C5.31438 11 5.11438 11.2 5.11438 11.5C5.11438 11.8 5.31438 12 5.61438 12Z" fill="black"/>
<path d="M5.61438 13C5.31438 13 5.11438 13.2 5.11438 13.5C5.11438 13.8 5.31438 14 5.61438 14C5.91438 14 6.11438 13.8 6.11438 13.5C6.11438 13.2 5.91438 13 5.61438 13Z" fill="black"/>
<path d="M10.1144 13C9.81438 13 9.61438 13.2 9.61438 13.5C9.61438 13.8 9.81438 14 10.1144 14C10.4144 14 10.6144 13.8 10.6144 13.5C10.6144 13.2 10.4144 13 10.1144 13Z" fill="black"/>
<path d="M12.3644 13C12.0644 13 11.8644 13.2 11.8644 13.5C11.8644 13.8 12.0644 14 12.3644 14C12.6644 14 12.8644 13.8 12.8644 13.5C12.8644 13.2 12.6644 13 12.3644 13Z" fill="black"/>
<path d="M14.6144 12C14.9144 12 15.1144 11.8 15.1144 11.5C15.1144 11.2 14.9144 11 14.6144 11C14.3144 11 14.1144 11.2 14.1144 11.5C14.1144 11.8 14.3144 12 14.6144 12Z" fill="black"/>
<path d="M14.6144 13C14.3144 13 14.1144 13.2 14.1144 13.5C14.1144 13.8 14.3144 14 14.6144 14C14.9144 14 15.1144 13.8 15.1144 13.5C15.1144 13.2 14.9144 13 14.6144 13Z" fill="black"/>
</svg>
