<svg width="21" height="20" viewBox="0 0 21 20" fill="none" xmlns="http://www.w3.org/2000/svg">
<path d="M17.4144 4.3H2.71438C2.41438 4.3 2.11438 4.5 2.11438 4.8C2.11438 5.1 2.41438 5.4 2.71438 5.4H4.41438V17.4C4.41438 17.7 4.71438 18 5.01438 18H15.2144C15.5144 18 15.8144 17.7 15.8144 17.4V5.4H17.5144C17.8144 5.4 18.1144 5.1 18.1144 4.8C18.1144 4.5 17.7144 4.3 17.4144 4.3ZM14.6144 16.8H5.51438V5.4H14.6144V16.8Z" fill="black"/>
<path d="M8.31438 3.2H11.7144C12.0144 3.2 12.3144 2.9 12.3144 2.6C12.3144 2.3 12.1144 2 11.8144 2H8.31438C8.01438 2 7.81438 2.3 7.81438 2.6C7.81438 2.9 8.01438 3.2 8.31438 3.2Z" fill="black"/>
<path d="M8.31438 14C8.61438 14 8.91438 13.7 8.91438 13.4V7.7C8.91438 7.4 8.61438 7.1 8.31438 7.1C8.01438 7.1 7.71438 7.4 7.71438 7.7V13.4C7.81438 13.7 8.01438 14 8.31438 14Z" fill="black"/>
<path d="M11.8144 14C12.1144 14 12.4144 13.7 12.4144 13.4V7.7C12.4144 7.4 12.1144 7.1 11.8144 7.1C11.5144 7.1 11.2144 7.5 11.2144 7.7V13.4C11.2144 13.7 11.4144 14 11.8144 14Z" fill="black"/>
</svg>
