<svg width="21" height="20" viewBox="0 0 21 20" fill="none" xmlns="http://www.w3.org/2000/svg">
<path d="M10.0144 19C9.71438 19 9.41438 18.9 9.21438 18.6C3.81438 12.5 2.51438 11.1 2.21438 10.7C1.51438 9.8 1.11438 8.6 1.11438 7.4C1.11438 4.4 3.51438 2 6.61438 2C7.91438 2 9.11438 2.5 10.1144 3.3C11.1144 2.5 12.4144 2 13.6144 2C16.6144 2 19.1144 4.4 19.1144 7.4C19.1144 8.7 18.6144 9.9 17.8144 10.8L10.8144 18.7C10.6144 18.9 10.4144 19 10.0144 19ZM4.01438 9.5C4.31438 9.9 7.51438 13.5 10.1144 16.4L16.3144 9.4C16.8144 8.9 17.0144 8.2 17.0144 7.4C17.0144 5.6 15.5144 4.1 13.7144 4.1C12.7144 4.1 11.7144 4.6 11.0144 5.4C10.7144 5.7 10.4144 5.8 10.1144 5.8C9.81438 5.8 9.51438 5.6 9.31438 5.4C8.61438 4.6 7.61438 4.1 6.61438 4.1C4.81438 4.1 3.31438 5.6 3.31438 7.4C3.21438 8.3 3.61438 9 4.01438 9.5C3.91438 9.5 3.91438 9.5 4.01438 9.5Z" fill="black"/>
</svg>
