<svg width="21" height="20" viewBox="0 0 21 20" fill="none" xmlns="http://www.w3.org/2000/svg">
<path d="M19.6144 18.0083L15.9144 14.3287C16.9144 13.0359 17.6144 11.3453 17.6144 9.4558C17.6144 5.08011 14.0144 1.5 9.61438 1.5C5.21438 1.5 1.61438 5.17956 1.61438 9.55525C1.61438 13.9309 5.21438 17.511 9.61438 17.511C11.4144 17.511 13.1144 16.9144 14.5144 15.8204L18.2144 19.5L19.6144 18.0083ZM9.61438 15.5221C6.31438 15.5221 3.61438 12.837 3.61438 9.55525C3.61438 6.27348 6.31438 3.5884 9.61438 3.5884C12.9144 3.5884 15.6144 6.27348 15.6144 9.55525C15.6144 12.837 12.9144 15.5221 9.61438 15.5221Z" fill="black"/>
</svg>
