<svg xmlns="http://www.w3.org/2000/svg">
	<symbol id="house" viewBox="0 0 80 80">
		<path d="M32.1 69.1h16V45.2h-16v23.9zm13.1-2.9H35V48.1h10.1v18.1h.1z"></path>
		<path
			d="M75.2 43.2l2.1-2.1-9.9-9.9v-27H53.6v13.2L40 3.8 2.6 41.2l2.1 2.1 7.8-7.8v37.8H8.6v2.9h64v-2.9h-5.2V35.4l7.8 7.8zm-18.7-36h8v21.1l-8-7.9V7.2zm8 66h-49V32.5L40 8l24.5 24.5v40.7h.1z">
		</path>
		<path
			d="M32.4 31c0 4.3 3.5 7.8 7.7 7.8 4.3 0 7.8-3.5 7.8-7.8s-3.5-7.7-7.8-7.7a7.6 7.6 0 00-7.7 7.7zm7.7-5a5 5 0 015 5 5 5 0 01-5 5 5 5 0 01-5-5 5 5 0 015-5zM22.5 45.2h-3v3.9h3v-3.9zM28.4 45.2h-3v3.9h3v-3.9zM22.5 51.2h-3v3.9h3v-3.9zM28.4 51.2h-3v3.9h3v-3.9zM54.4 45.2h-3v3.9h3v-3.9zM60.4 45.2h-3v3.9h3v-3.9zM54.4 51.2h-3v3.9h3v-3.9zM60.4 51.2h-3v3.9h3v-3.9z">
		</path>
	</symbol>
	<symbol id="burger" viewBox="0 0 80 80">
		<path
			d="M73.8 51.5H6.2c-2.4 0-4.3 2-4.3 4.4v3.5c0 2.3 1.9 4.1 4.3 4.1h1v1a10 10 0 009.9 10h45.8a10 10 0 009.9-10v-1h1c2.3 0 4.3-1.9 4.3-4.3v-3.5c0-2.2-1.9-4.2-4.3-4.2zm-3.9 13a7 7 0 01-6.9 7H17a7 7 0 01-6.9-7v-1h59.8v1zm5.2-5.3c0 .8-.6 1.3-1.3 1.3H6.2c-.7 0-1.3-.5-1.3-1.3v-3.5c0-.6.6-1.2 1.3-1.2h67.7c.7 0 1.3.6 1.3 1.4v3.4h-.1zM18.1 43.5l5.4 4 5.5-4 5.5 4 5.5-4 5.4 4 5.5-4 5.5 4 5.5-4 5.5 4 6.3-4.8-1.7-2.4-4.6 3.4-5.5-4-5.5 4-5.5-4-5.5 4-5.4-4-5.5 4-5.5-4-5.5 4-5.4-4-5.5 4L8 40.3l-1.8 2.5 6.4 4.7 5.5-4zM72.8 36.6v-3C72.1 18 57.7 5.6 40 5.6 22.3 5.6 7.8 18 7.1 33.6v3h65.7zM40 8.6c16 0 29.2 11.2 29.8 25H10.1c.7-13.9 13.9-25 29.9-25z">
		</path>
		<path d="M40 22.6a2 2 0 100-4 2 2 0 000 4zM32 17.6a2 2 0 100-4 2 2 0 000 4zM48 17.6a2 2 0 100-4 2 2 0 000 4z">
		</path>
	</symbol>
	<symbol id="gift" viewBox="0 0 80 80">
		<path
			d="M68.7 24.6H44.3c13.6-6.8 14.7-11 14.2-13.5-1.1-3.9-5.6-6.9-9.8-5.3-5.5 2.1-7 10.3-8.5 16.2-1.9-6-3.7-13.6-8-17.5a7.3 7.3 0 00-5.7-2c-4 .4-9.7 5.3-7.3 10.8 2.2 5.3 9.5 8.7 14.4 11.4H11.3a2.8 2.8 0 00-2.8 2.8v11.2c0 1.6 1.3 2.8 2.8 2.8h.3v36h57v-36h.1c1.6 0 2.8-1.3 2.8-2.8V27.5c0-1.6-1.3-2.9-2.8-2.9zM50.3 8.3c2.1-.3 4.9 1.3 5.2 3.2.4 2.7-3.3 5.2-5 6.3-2.5 1.7-4.9 2.6-7.2 4 .8-3.7 2.5-12.9 7-13.5zm-22.6 9.8c-2.2-1.5-6.4-4.4-6.3-7.7.1-3.6 5.7-6.5 8.7-3.8 3.8 3.3 5.6 11 7 16.4-3.2-1.6-6.2-2.8-9.4-4.9zm5.9 56.4H14.5v-33h19.1v33zm0-36H11.5V27.6h22.1v11zm10 36h-7.1V27.6h7.1v47zm3 0v-33h19.1v33H46.6zm21.9-36H46.6V27.6h21.9v11z">
		</path>
	</symbol>
</svg>
