<svg xmlns="http://www.w3.org/2000/svg"><symbol id="eating" viewBox="0 0 74 70"><path d="M38.9 15.3c0 1.105-.85 2-1.9 2-1.05 0-1.9-.895-1.9-2s.85-2 1.9-2c1.05 0 1.9.895 1.9 2ZM29.2 12.2c1.05 0 1.9-.895 1.9-2s-.85-2-1.9-2c-1.05 0-1.9.895-1.9 2s.85 2 1.9 2ZM46.6 10.2c0 1.105-.85 2-1.9 2-1.05 0-1.9-.895-1.9-2s.85-2 1.9-2c1.05 0 1.9.895 1.9 2Z"/><path fill-rule="evenodd" clip-rule="evenodd" d="M68.8 31.5c0-.288.023-.577.047-.876.026-.324.053-.66.053-1.024v-1.2C68.2 12.7 54.2 0 37 0 19.7 0 5.7 12.7 5 28.5v1.2c0 .6 0 1.2.1 1.8h63.7ZM37 3c15.6 0 28.4 11.3 29 25.5H8C8.6 14.4 21.4 3 37 3Z"/><path d="m21 42.5-5.4-4.1-5.3 4.1-6.2-4.7 1.7-2.5 4.5 3.4 5.3-4.1 5.4 4.1 5.3-4.1 5.3 4.1 5.3-4.1 5.4 4.1 5.3-4.1 5.3 4.1 5.4-4.1 5.3 4.1 4.5-3.4 1.7 2.5-6.2 4.7-5.3-4.1-5.4 4.1-5.3-4.1-5.3 4.1-5.4-4.1-5.3 4.1-5.3-4.1-5.3 4.1Z"/><path fill-rule="evenodd" clip-rule="evenodd" d="M69.9 46.7c2.2 0 4.1 2 3.9 4.3v3.5c0 2.4-1.8 4.3-4.1 4.3h-.9v1.1c0 5.6-4.3 10.1-9.6 10.1H14.6C9.3 70 5 65.4 5 59.9v-1.1h-.9c-2.2 0-4.1-1.9-4.1-4.3V51c0-2.4 1.8-4.3 4.1-4.3h65.8ZM59.3 66.9c3.7 0 6.7-3.1 6.7-7v-1.1H7.9v1.1c0 3.8 3 7 6.7 7h44.7Zm10.6-11.1c.6 0 1.2-.6 1.2-1.3 0 0 0-3.5-.1-3.5 0-.7-.5-1.3-1.2-1.3H4c-.6 0-1.2.6-1.2 1.3v3.5c0 .7.5 1.3 1.2 1.3h65.9Z"/></symbol><symbol id="housing" viewBox="0 0 84 84"><path fill-rule="evenodd" clip-rule="evenodd" d="M42 8.379 4.44 45.939l2.12 2.122L14 40.62V78h-4v3h65v-3h-5V40.621l7.44 7.44 2.12-2.122L70 36.38V9H56v13.379l-14-14Zm17 17 8 8V12h-8v13.379Zm8 12.242-25-25-25 25V78h50V37.621ZM34 50v24h16V50H34Zm3 21V53h10v18H37ZM21 50h3v4h-3v-4Zm9 0h-3v4h3v-4Zm-9 6h3v4h-3v-4Zm9 0h-3v4h3v-4Zm24-6h3v4h-3v-4Zm9 0h-3v4h3v-4Zm-9 6h3v4h-3v-4Zm9 0h-3v4h3v-4ZM37 36a5 5 0 1 1 10 0 5 5 0 0 1-10 0Zm5-8a8 8 0 1 0 0 16 8 8 0 0 0 0-16Z"/></symbol><symbol id="souvenir" viewBox="0 0 84 84"><path d="M71.1 27.5H46.3c13.8-6.9 14.9-11.3 14.4-13.7-1.2-4-5.7-7-10-5.4-5.6 2.1-7.1 10.4-8.6 16.4-2-6.1-3.8-13.8-8.2-17.7-1.3-1.1-3.1-2.3-5.8-2-4 .4-9.8 5.4-7.5 11 2.3 5.4 9.7 8.8 14.6 11.5H12.9c-1.6 0-2.9 1.3-2.9 2.9v11.3c0 1.6 1.3 2.9 2.9 2.9h.3V81H71V44.6h.1c1.6 0 2.9-1.3 2.9-2.9V30.4c0-1.6-1.3-2.9-2.9-2.9ZM52.4 10.9c2.1-.3 5 1.3 5.3 3.2.4 2.8-3.4 5.3-5.1 6.4-2.5 1.7-4.9 2.6-7.3 4.1.9-3.7 2.5-13 7.1-13.7Zm-22.9 10c-2.2-1.5-6.5-4.4-6.4-7.8.1-3.6 5.7-6.6 8.8-3.9 3.9 3.4 5.7 11.1 7.1 16.6-3.2-1.5-6.3-2.8-9.5-4.9Zm6 57.1H16.1V44.6h19.4V78Zm0-36.5H13v-11h22.5v11Zm10.2 0V78h-7.2V30.6h7.2v10.9ZM68 78H48.6V44.6H68V78Zm2.9-36.5H48.6v-11h22.3v11Z"/></symbol></svg>