<svg xmlns="http://www.w3.org/2000/svg"><symbol id="arrow" viewBox="0 0 21 20"><path fill-rule="evenodd" clip-rule="evenodd" d="M4.334 7.345a.75.75 0 0 1 1.06 0l4.72 4.72 4.72-4.72a.75.75 0 1 1 1.06 1.06l-5.25 5.25a.75.75 0 0 1-1.06 0l-5.25-5.25a.75.75 0 0 1 0-1.06Z" fill="#000"/></symbol><symbol id="cross" viewBox="0 0 21 20"><path d="M17.114 4.292 15.822 3l-5.708 5.708L4.407 3 3.114 4.292 8.822 10l-5.708 5.708L4.407 17l5.707-5.708L15.822 17l1.292-1.292L11.407 10l5.707-5.708Z" fill="#000"/></symbol><symbol id="date" viewBox="0 0 21 20"><path d="M7.864 12c.3 0 .5-.2.5-.5s-.2-.5-.5-.5-.5.2-.5.5.2.5.5.5Z"/><path d="M17.114 4h-2V2h-1v2h-8V2h-1v2h-2c-.6 0-1 .4-1 1v11c0 .5.4 1 1 1h14c.5 0 1-.5 1-1V5c0-.6-.5-1-1-1Zm0 12h-14V9h14v7Zm-14-8V5h2v2h1V5h8v2h1V5h2v3h-14Z"/><path d="M10.114 12c.3 0 .5-.2.5-.5s-.2-.5-.5-.5-.5.2-.5.5.2.5.5.5ZM12.364 12c.3 0 .5-.2.5-.5s-.2-.5-.5-.5-.5.2-.5.5.2.5.5.5ZM7.864 13c-.3 0-.5.2-.5.5s.2.5.5.5.5-.2.5-.5-.2-.5-.5-.5ZM5.614 12c.3 0 .5-.2.5-.5s-.2-.5-.5-.5-.5.2-.5.5.2.5.5.5ZM5.614 13c-.3 0-.5.2-.5.5s.2.5.5.5.5-.2.5-.5-.2-.5-.5-.5ZM10.114 13c-.3 0-.5.2-.5.5s.2.5.5.5.5-.2.5-.5-.2-.5-.5-.5ZM12.364 13c-.3 0-.5.2-.5.5s.2.5.5.5.5-.2.5-.5-.2-.5-.5-.5ZM14.614 12c.3 0 .5-.2.5-.5s-.2-.5-.5-.5-.5.2-.5.5.2.5.5.5ZM14.614 13c-.3 0-.5.2-.5.5s.2.5.5.5.5-.2.5-.5-.2-.5-.5-.5Z"/></symbol><symbol id="delete" viewBox="0 0 21 20"><g fill="#000"><path d="M17.414 4.3h-14.7c-.3 0-.6.2-.6.5s.3.6.6.6h1.7v12c0 .3.3.6.6.6h10.2c.3 0 .6-.3.6-.6v-12h1.7c.3 0 .6-.3.6-.6s-.4-.5-.7-.5Zm-2.8 12.5h-9.1V5.4h9.1v11.4ZM8.314 3.2h3.4c.3 0 .6-.3.6-.6s-.2-.6-.5-.6h-3.5c-.3 0-.5.3-.5.6s.2.6.5.6Z"/><path d="M8.314 14c.3 0 .6-.3.6-.6V7.7c0-.3-.3-.6-.6-.6s-.6.3-.6.6v5.7c.1.3.3.6.6.6ZM11.814 14c.3 0 .6-.3.6-.6V7.7c0-.3-.3-.6-.6-.6s-.6.4-.6.6v5.7c0 .3.2.6.6.6Z"/></g></symbol><symbol id="heart" viewBox="0 0 21 20"><path d="M10.014 19c-.3 0-.6-.1-.8-.4-5.4-6.1-6.7-7.5-7-7.9-.7-.9-1.1-2.1-1.1-3.3 0-3 2.4-5.4 5.5-5.4 1.3 0 2.5.5 3.5 1.3 1-.8 2.3-1.3 3.5-1.3 3 0 5.5 2.4 5.5 5.4 0 1.3-.5 2.5-1.3 3.4l-7 7.9c-.2.2-.4.3-.8.3Zm-6-9.5c.3.4 3.5 4 6.1 6.9l6.2-7c.5-.5.7-1.2.7-2 0-1.8-1.5-3.3-3.3-3.3-1 0-2 .5-2.7 1.3-.3.3-.6.4-.9.4-.3 0-.6-.2-.8-.4-.7-.8-1.7-1.3-2.7-1.3-1.8 0-3.3 1.5-3.3 3.3-.1.9.3 1.6.7 2.1-.1 0-.1 0 0 0Z"/></symbol><symbol id="home" viewBox="0 0 21 20"><path d="m10.114 3-6 5.8V15h12V8.8l-6-5.8Zm5 11h-10V9.2l5-4.8 5 4.8V14Z"/><path d="M8.114 13h1v-2.5h2V13h1V9.5h-4V13Z"/></symbol><symbol id="info" viewBox="0 0 21 20"><path fill-rule="evenodd" clip-rule="evenodd" d="M9.114 4h2v2h-2V4Zm2 12h-2V7h2v9Z"/></symbol><symbol id="minus" viewBox="0 0 21 20"><path d="M3.114 9v2h14V9h-14Z" fill="#000"/></symbol><symbol id="plus" viewBox="0 0 20 20"><path d="M17 9h-6V3H9v6H3v2h6v6h2v-6h6V9Z" fill="#000"/></symbol><symbol id="search" viewBox="0 0 21 20"><path d="m19.614 18.008-3.7-3.68c1-1.292 1.7-2.983 1.7-4.872 0-4.376-3.6-7.956-8-7.956s-8 3.68-8 8.055c0 4.376 3.6 7.956 8 7.956 1.8 0 3.5-.597 4.9-1.69l3.7 3.679 1.4-1.492Zm-10-2.486c-3.3 0-6-2.685-6-5.967 0-3.282 2.7-5.967 6-5.967s6 2.685 6 5.967c0 3.282-2.7 5.967-6 5.967Z"/></symbol><symbol id="star" viewBox="0 0 21 20"><path d="m10.114 1 2.1 6.5h6.9l-5.6 4 2.2 6.5-5.6-4-5.6 4 2.2-6.5-5.6-4h6.9l2.1-6.5Z"/></symbol></svg>