<svg xmlns="http://www.w3.org/2000/svg"><symbol id="telegram" viewBox="0 0 19 16"><path d="M17.285.1 1.341 6.247c-1.088.437-1.082 1.044-.2 1.315L5.235 8.84l9.471-5.976c.448-.273.857-.126.52.172L7.554 9.962h-.002.002l-.282 4.22c.413 0 .596-.19.828-.413l1.988-1.934 4.136 3.055c.763.42 1.31.204 1.5-.706L18.438 1.39c.278-1.114-.425-1.619-1.153-1.29Z"/></symbol><symbol id="vk" viewBox="0 0 25 14"><path fill-rule="evenodd" clip-rule="evenodd" d="M23.95.948c.166-.546 0-.948-.795-.948H20.53c-.668 0-.976.347-1.143.73 0 0-1.335 3.196-3.226 5.272-.612.602-.89.793-1.224.793-.167 0-.418-.191-.418-.738V.948c0-.656-.184-.948-.74-.948H9.65c-.417 0-.668.304-.668.593 0 .621.946.765 1.043 2.513v3.798c0 .833-.153.984-.487.984-.89 0-3.055-3.211-4.34-6.885C4.949.288 4.698 0 4.027 0H1.4C.65 0 .5.347.5.73c0 .682.89 4.07 4.145 8.551C6.815 12.341 9.87 14 12.653 14c1.669 0 1.875-.368 1.875-1.003v-2.313c0-.737.158-.884.687-.884.39 0 1.057.192 2.615 1.667C19.61 13.216 19.903 14 20.905 14h2.625c.75 0 1.126-.368.91-1.096-.238-.724-1.088-1.775-2.215-3.022-.612-.71-1.53-1.475-1.81-1.858-.388-.491-.277-.71 0-1.147 0 0 3.2-4.426 3.534-5.929Z"/></symbol><symbol id="youtube" viewBox="0 0 23 18"><path d="M19.107.5H3.674C1.814.5.5 2.094.5 3.9v10.094c0 1.912 1.314 3.506 3.174 3.506h15.652c1.642 0 3.174-1.594 3.174-3.4V3.9C22.281 2.094 20.968.5 19.107.5ZM8.162 13.037V4.963L15.495 9l-7.333 4.037Z"/></symbol></svg>